# xmcd
#
# Track frame offsets:
#	150
#	21345
#	39257
#	51571
#	55645
#
# Disc length: 1052 seconds
#
# Revision: 1
# Processed by: cddbd v1.5.1PL0 Copyright (c) Steve Scherf et al.
# Submitted via: CDex 1.50Beta5
#
DISCID=3b041a05
DTITLE=TOMOVSKY - YORUMANIA
DYEAR=1900
DGENRE=Rock
TTITLE0=ファミレス
TTITLE1=カンペキなヨナカ
TTITLE2=ダレガクルノ?
TTITLE3=ヨルマニア
TTITLE4=カンタンが降ってるんだ
EXTD=
EXTT0=
EXTT1=
EXTT2=
EXTT3=
EXTT4=
PLAYORDER=
